<?xml version="1.0" standalone="no"?><!DOCTYPE svg PUBLIC "-//W3C//DTD SVG 1.1//EN" "http://www.w3.org/Graphics/SVG/1.1/DTD/svg11.dtd"><svg t="1627389500223" class="icon" viewBox="0 0 1024 1024" version="1.1" xmlns="http://www.w3.org/2000/svg" p-id="3502" xmlns:xlink="http://www.w3.org/1999/xlink" width="200" height="200"><defs><style type="text/css">@font-face { font-family: feedback-iconfont; src: url("//at.alicdn.com/t/font_1031158_1uhr8ri0pk5.eot?#iefix") format("embedded-opentype"), url("//at.alicdn.com/t/font_1031158_1uhr8ri0pk5.woff2") format("woff2"), url("//at.alicdn.com/t/font_1031158_1uhr8ri0pk5.woff") format("woff"), url("//at.alicdn.com/t/font_1031158_1uhr8ri0pk5.ttf") format("truetype"), url("//at.alicdn.com/t/font_1031158_1uhr8ri0pk5.svg#iconfont") format("svg"); }
</style></defs><path d="M996.7104 444.928L611.328 48.896a140.9536 140.9536 0 0 0-198.7584 0L27.2896 444.928a96.1536 96.1536 0 0 0-26.88 66.6624v357.9392a144.3328 144.3328 0 0 0 141.7216 146.5344H340.992a41.5744 41.5744 0 0 0 41.2672-41.8816V688.64a61.1328 61.1328 0 0 1 59.136-62.8224h141.1072a61.1328 61.1328 0 0 1 59.136 62.8224v73.0624a41.3184 41.3184 0 1 0 82.5856 0V688.64a144.3328 144.3328 0 0 0-141.7216-146.5344H441.4464a144.3328 144.3328 0 0 0-141.7216 146.5344v243.6608H142.1312a61.0816 61.0816 0 0 1-59.0848-62.8224v-357.888a11.264 11.264 0 0 1 3.072-7.936l385.28-395.8784a57.2416 57.2416 0 0 1 81.2032 0l385.3312 395.9296a11.1616 11.1616 0 0 1 3.072 7.8336v357.9392a61.1328 61.1328 0 0 1-59.136 62.8224H683.008a41.8816 41.8816 0 0 0 0 83.712h198.912a144.3328 144.3328 0 0 0 141.7216-146.5344v-357.888a96.0512 96.0512 0 0 0-26.88-66.7136z m-758.784 7.8848a38.912 38.912 0 1 0 38.912-39.424 39.2192 39.2192 0 0 0-38.912 39.424z" fill="#FFF" p-id="3503"></path></svg>