<?xml version="1.0" standalone="no"?><!DOCTYPE svg PUBLIC "-//W3C//DTD SVG 1.1//EN" "http://www.w3.org/Graphics/SVG/1.1/DTD/svg11.dtd"><svg t="1629295974618" class="icon" viewBox="0 0 1024 1024" version="1.1" xmlns="http://www.w3.org/2000/svg" p-id="3013" xmlns:xlink="http://www.w3.org/1999/xlink" width="200" height="200"><defs><style type="text/css"></style></defs><path d="M512 222.12H222.12c-29.11 0-52.71 23.6-52.71 52.71V907.3c0 29.11 23.6 52.71 52.71 52.71h421.65c29.11 0 52.71-23.6 52.71-52.71V406.59H564.71c-29.11 0-52.71-23.6-52.71-52.71V222.12z" fill="#E1F5FF" p-id="3014"></path><path d="M696.47 406.59L512 222.12v131.76c0 29.11 23.6 52.71 52.71 52.71h131.76z" fill="#FFD600" p-id="3015"></path><path d="M327.53 222.12H512l184.47 184.47v395.29h105.41c29.11 0 52.71-23.6 52.71-52.71V116.71c0-29.11-23.6-52.71-52.71-52.71H380.23c-29.11 0-52.71 23.6-52.71 52.71v105.41" fill="#FFF" p-id="3016"></path><path d="M411.94 359.24H295.82c-11.6 0-21 9.4-21 21s9.4 21 21 21h116.12c11.6 0 21-9.4 21-21s-9.4-21-21-21zM570.06 517.35H295.82c-11.6 0-21 9.4-21 21s9.4 21 21 21h274.24c11.6 0 21-9.4 21-21 0-11.59-9.4-21-21-21zM570.06 675.47H295.82c-11.6 0-21 9.4-21 21s9.4 21 21 21h274.24c11.6 0 21-9.4 21-21s-9.4-21-21-21z" fill="#313FA0" p-id="3017"></path></svg>