<?xml version="1.0" standalone="no"?><!DOCTYPE svg PUBLIC "-//W3C//DTD SVG 1.1//EN" "http://www.w3.org/Graphics/SVG/1.1/DTD/svg11.dtd"><svg t="1626803868919" class="icon" viewBox="0 0 1024 1024" version="1.1" xmlns="http://www.w3.org/2000/svg" p-id="2115" xmlns:xlink="http://www.w3.org/1999/xlink" width="200" height="200"><defs><style type="text/css"></style></defs><path d="M384 938.666667h42.666667v-341.333334H85.333333v42.666667h298.666667v298.666667z" fill="#231F20" p-id="2116"></path><path d="M422.229333 631.466667l-302.037333 301.994666-29.866667-29.866666L392.362667 601.6zM640 426.666667h298.666667V384h-298.666667V85.333333h-42.666667v341.333334h42.666667z" fill="#231F20" p-id="2117"></path><path d="M934.869333 119.68l-301.994666 301.994667-29.866667-29.866667 301.994667-302.037333zM426.24 426.666667V85.333333h-42.666667v298.666667h-298.666666v42.666667h341.333333z" fill="#231F20" p-id="2118"></path><path d="M392.96 420.992L91.050667 118.997333l29.866666-29.866666L422.826667 391.125333zM640.426667 640.426667h298.666666v-42.666667h-341.333333v341.333333h42.666667v-298.666666z" fill="#231F20" p-id="2119"></path><path d="M905.472 935.552l-301.994667-301.994667 29.866667-29.866666 301.994667 301.994666z" fill="#231F20" p-id="2120"></path></svg>