<?xml version="1.0" standalone="no"?><!DOCTYPE svg PUBLIC "-//W3C//DTD SVG 1.1//EN" "http://www.w3.org/Graphics/SVG/1.1/DTD/svg11.dtd"><svg t="1626703864891" class="icon" viewBox="0 0 1024 1024" version="1.1" xmlns="http://www.w3.org/2000/svg" p-id="2055" xmlns:xlink="http://www.w3.org/1999/xlink" width="200" height="200"><defs><style type="text/css"></style></defs><path d="M813.875 289.485L713.318 385.33c19.15 33.587 28.775 71.885 28.775 114.995 0 129.332-105.37 234.804-229.99 234.804-47.924 0-91.034-14.336-129.332-43.11L315.7 754.277c57.447 19.15 124.519 33.588 196.403 33.588 282.624 0 479.13-196.404 479.13-287.437-0.102-57.651-67.174-148.685-177.357-210.944zM305.971 605.594c-14.336-33.485-28.774-67.072-28.774-105.37C282.01 366.08 382.669 260.71 512 260.71c43.11 0 86.22 14.336 124.518 38.298l62.26-62.26c-57.447-19.148-119.808-28.774-186.88-28.774-273.101 0-479.13 191.59-479.13 287.437 0.102 57.549 62.464 138.957 172.646 206.029l100.557-95.846z" p-id="2056"></path><path d="M428.134 626.586c23.45 17.92 51.405 26.93 83.866 26.93 33.178 0 64-11.16 88.883-30.207 39.322-27.853 64.922-73.728 64.922-125.543 0-28.262-7.68-54.784-20.992-77.516L890.47 188.826c4.813 0 4.813-9.626 0-14.336l-38.297-38.298c0-4.813-9.626-4.813-14.336 0l-245.043 230.81a152.545 152.545 0 0 0-80.692-22.836c-84.89 0-153.702 68.813-153.702 153.703 0 25.702 6.349 49.971 17.51 71.27L119.194 806.81c-4.813 0-4.813 9.626 0 14.337l38.297 38.297c4.813 4.813 9.626 4.813 14.336 0l253.747-234.598c0.82 0.614 1.639 1.229 2.56 1.74z" p-id="2057"></path></svg>