<?xml version="1.0" standalone="no"?><!DOCTYPE svg PUBLIC "-//W3C//DTD SVG 1.1//EN" "http://www.w3.org/Graphics/SVG/1.1/DTD/svg11.dtd"><svg t="1626803850780" class="icon" viewBox="0 0 1024 1024" version="1.1" xmlns="http://www.w3.org/2000/svg" p-id="1983" xmlns:xlink="http://www.w3.org/1999/xlink" width="200" height="200"><defs><style type="text/css"></style></defs><path d="M896 0H128C57.408 0 0 57.408 0 128v768c0 70.592 57.408 128 128 128h768c70.592 0 128-57.408 128-128V128c0-70.592-57.408-128-128-128z m64 896c0 35.264-28.736 64-64 64H128c-35.328 0-64-28.736-64-64V128c0-35.264 28.672-64 64-64h768c35.264 0 64 28.736 64 64v768zM800 192H640a32 32 0 1 0 0 64h82.752L585.408 393.344a32 32 0 1 0 45.248 45.312L768 301.248V384a32 32 0 1 0 64 0V224a32 32 0 0 0-32-32zM301.248 256H384a32 32 0 0 0 0-64H224a32 32 0 0 0-32 32V384a32 32 0 1 0 64 0V301.248l137.344 137.408a31.872 31.872 0 0 0 45.312 0 32 32 0 0 0 0-45.312L301.248 256z m92.16 329.408L256 722.752V640a32 32 0 0 0-64 0v160a32 32 0 0 0 32 32H384a32 32 0 0 0 0-64H301.248l137.408-137.344a32 32 0 1 0-45.312-45.248zM800 608a32 32 0 0 0-32 32v82.752L630.656 585.408a32 32 0 1 0-45.248 45.248L722.752 768H640a32 32 0 1 0 0 64h160a32 32 0 0 0 32-32V640a32 32 0 0 0-32-32z" p-id="1984"></path></svg>