<?xml version="1.0" standalone="no"?><!DOCTYPE svg PUBLIC "-//W3C//DTD SVG 1.1//EN" "http://www.w3.org/Graphics/SVG/1.1/DTD/svg11.dtd"><svg t="1626804723349" class="icon" viewBox="0 0 1024 1024" version="1.1" xmlns="http://www.w3.org/2000/svg" p-id="5531" xmlns:xlink="http://www.w3.org/1999/xlink" width="200" height="200"><defs><style type="text/css"></style></defs><path d="M853.333333 746.666667a42.666667 42.666667 0 0 1 4.992 85.034666L853.333333 832H170.666667a42.666667 42.666667 0 0 1-4.992-85.034667L170.666667 746.666667h682.666666zM128 394.666667a42.666667 42.666667 0 0 1 65.28-36.181334l170.666667 106.666667a42.666667 42.666667 0 0 1 0 72.362667l-170.666667 106.666666A42.666667 42.666667 0 0 1 128 608zM853.333333 554.666667a42.666667 42.666667 0 0 1 4.992 85.034666L853.333333 640h-341.333333a42.666667 42.666667 0 0 1-4.992-85.034667L512 554.666667h341.333333z m0-192a42.666667 42.666667 0 0 1 4.992 85.034666L853.333333 448h-341.333333a42.666667 42.666667 0 0 1-4.992-85.034667L512 362.666667h341.333333zM853.333333 170.666667a42.666667 42.666667 0 0 1 4.992 85.034666L853.333333 256H170.666667a42.666667 42.666667 0 0 1-4.992-85.034667L170.666667 170.666667h682.666666z" p-id="5532"></path></svg>