<?xml version="1.0" standalone="no"?><!DOCTYPE svg PUBLIC "-//W3C//DTD SVG 1.1//EN" "http://www.w3.org/Graphics/SVG/1.1/DTD/svg11.dtd"><svg t="1627389873602" class="icon" viewBox="0 0 1024 1024" version="1.1" xmlns="http://www.w3.org/2000/svg" p-id="6174" xmlns:xlink="http://www.w3.org/1999/xlink" width="200" height="200"><defs><style type="text/css">@font-face { font-family: feedback-iconfont; src: url("//at.alicdn.com/t/font_1031158_1uhr8ri0pk5.eot?#iefix") format("embedded-opentype"), url("//at.alicdn.com/t/font_1031158_1uhr8ri0pk5.woff2") format("woff2"), url("//at.alicdn.com/t/font_1031158_1uhr8ri0pk5.woff") format("woff"), url("//at.alicdn.com/t/font_1031158_1uhr8ri0pk5.ttf") format("truetype"), url("//at.alicdn.com/t/font_1031158_1uhr8ri0pk5.svg#iconfont") format("svg"); }
</style></defs><path d="M976.068 432.324h-103.74c-18.395 0-38.216-14.281-44.03-31.74l-14.147-33.581c-8.427-16.36-4.682-40.385 8.333-53.397l73.826-73.826c13.011-13.013 13.011-34.306 0-47.319l-66.237-66.235c-13.013-13.013-34.304-13.013-47.314 0l-74.362 74.358c-13.01 13.011-37.098 16.885-53.534 8.61l-32.827-13.508c-17.507-5.676-31.825-25.374-31.825-43.775V46.469c0-18.395-15.052-33.45-33.453-33.45H463.08c-18.398 0-33.454 15.055-33.454 33.45v105.443c0 18.396-14.32 38.1-31.822 43.776l-32.83 13.507c-16.43 8.276-40.523 4.402-53.536-8.61l-74.358-74.357c-13.013-13.013-34.304-13.013-47.312 0l-66.242 66.235c-13.011 13.013-13.011 34.306 0 47.319l73.831 73.826c13.012 13.011 16.762 37.037 8.328 53.396l-14.147 33.582c-5.814 17.458-25.628 31.74-44.029 31.74H43.774c-18.396-0.002-33.453 15.055-33.453 33.454v93.673c0 18.401 15.057 33.453 33.453 33.453h102.68c18.401 0 38.027 14.348 43.614 31.879l14.249 34.978c8.25 16.45 4.35 40.55-8.658 53.564l-72.128 72.128c-13.012 13.011-13.012 34.299 0 47.314l66.236 66.241c13.012 13.01 34.304 13.01 47.313 0l71.601-71.601c13.012-13.012 37.053-16.784 53.424-8.383l35.727 14.899c17.493 5.721 31.798 25.457 31.798 43.862v100.979c0 18.397 15.055 33.452 33.458 33.452h93.673c18.401 0 33.456-15.055 33.456-33.452v-100.98c0-18.404 14.306-38.14 31.798-43.861l26.015-10.853-50.485-50.486c-27.85 9.437-57.354 14.369-87.62 14.369-72.683 0-141.016-28.31-192.41-79.7-51.392-51.396-79.694-119.723-79.694-192.406 0-72.682 28.302-141.015 79.693-192.411 51.395-51.391 119.728-79.694 192.411-79.694 72.682 0 141.01 28.304 192.405 79.694 51.39 51.396 79.7 119.729 79.7 192.41 0 29.588-4.694 58.455-13.726 85.754l50.683 50.68 10.787-26.495c5.59-17.531 25.216-31.88 43.617-31.88h102.68c18.398 0 33.454-15.05 33.454-33.452v-93.673c0-18.4-15.056-33.456-33.453-33.456h-0.004zM715.061 622.279c-10.691-10.466-15.681-18.936-9.685-35.836 31.518-88.777 2.675-179.905-74.593-233.895-48.749-34.055-103.174-43.877-163.25-25.979 22.457 26.375 47.701 48.35 71.412 71.877 46.528 46.188 47.208 103.322 2.828 147.015-43.01 42.348-101.077 40.951-145.733-4.102-23.436-23.632-46.026-48.097-69.003-72.185-2.76 1.646-5.527 3.29-8.294 4.932-13.272 72.473 3.173 137.263 57.64 189.218 57.981 55.315 127.355 70.941 203.438 45.341 19.436-6.537 29.735-3.088 42.908 10.285 56.719 57.59 159.456 155.188 217.26 211.702 27.943 27.334 62.286 28.221 89.83 4.32 34.205-29.678 35.933-68.924 3.153-101.732-57.131-57.159-160.166-154.427-217.911-210.961z m166.75 288.3c-17.556 0-31.788-14.233-31.788-31.788s14.23-31.787 31.787-31.787 31.782 14.234 31.782 31.787-14.227 31.788-31.782 31.788z m0 0" fill="#FFF" p-id="6175"></path></svg>