<?xml version="1.0" standalone="no"?><!DOCTYPE svg PUBLIC "-//W3C//DTD SVG 1.1//EN" "http://www.w3.org/Graphics/SVG/1.1/DTD/svg11.dtd"><svg t="1627389636248" class="icon" viewBox="0 0 1024 1024" version="1.1" xmlns="http://www.w3.org/2000/svg" p-id="3750" xmlns:xlink="http://www.w3.org/1999/xlink" width="200" height="200"><defs><style type="text/css">@font-face { font-family: feedback-iconfont; src: url("//at.alicdn.com/t/font_1031158_1uhr8ri0pk5.eot?#iefix") format("embedded-opentype"), url("//at.alicdn.com/t/font_1031158_1uhr8ri0pk5.woff2") format("woff2"), url("//at.alicdn.com/t/font_1031158_1uhr8ri0pk5.woff") format("woff"), url("//at.alicdn.com/t/font_1031158_1uhr8ri0pk5.ttf") format("truetype"), url("//at.alicdn.com/t/font_1031158_1uhr8ri0pk5.svg#iconfont") format("svg"); }
</style></defs><path d="M928.856524 0.043518H98.875798A97.851841 97.851841 0 0 0 0.063997 98.59933v626.149388a98.555811 98.555811 0 0 0 98.811801 102.395648h169.976776v141.753976a54.013704 54.013704 0 0 0 55.29365 55.165655c14.527383-1.087954 28.350795-6.59172 39.550319-15.743331l181.752275-181.1763h379.503872a97.851841 97.851841 0 0 0 98.8118-98.427816V98.535332A92.284078 92.284078 0 0 0 928.856524 0.107515z m-292.467571 582.887227h-426.861858a51.261821 51.261821 0 0 1-51.325819-51.197824c0-28.286798 22.975024-51.197824 51.325819-51.197824h426.861858c28.414792 0 51.389816 22.911026 51.389816 51.197824 0 28.286798-23.039021 51.197824-51.389816 51.197824z m181.816273-236.277958h-608.614134a49.725887 49.725887 0 0 1-51.389816-51.197824 52.093786 52.093786 0 0 1 51.325819-51.197824h608.678131c28.158803 0.383984 50.941835 23.039021 51.389816 51.197824a49.725887 49.725887 0 0 1-51.389816 51.197824z" fill="#FFF" p-id="3751"></path></svg>