<?xml version="1.0" standalone="no"?><!DOCTYPE svg PUBLIC "-//W3C//DTD SVG 1.1//EN" "http://www.w3.org/Graphics/SVG/1.1/DTD/svg11.dtd"><svg t="1627389662615" class="icon" viewBox="0 0 1024 1024" version="1.1" xmlns="http://www.w3.org/2000/svg" p-id="4549" xmlns:xlink="http://www.w3.org/1999/xlink" width="200" height="200"><defs><style type="text/css">@font-face { font-family: feedback-iconfont; src: url("//at.alicdn.com/t/font_1031158_1uhr8ri0pk5.eot?#iefix") format("embedded-opentype"), url("//at.alicdn.com/t/font_1031158_1uhr8ri0pk5.woff2") format("woff2"), url("//at.alicdn.com/t/font_1031158_1uhr8ri0pk5.woff") format("woff"), url("//at.alicdn.com/t/font_1031158_1uhr8ri0pk5.ttf") format("truetype"), url("//at.alicdn.com/t/font_1031158_1uhr8ri0pk5.svg#iconfont") format("svg"); }
</style></defs><path d="M511.723243 0L50.646486 156.644324V553.513514c0 161.625946 92.436757 304.432432 244.652973 373.621621L502.867027 1024l221.405405-101.292973c152.216216-64.761081 249.081081-211.995676 249.081082-378.04973v-387.459459L511.723243 0zM880.916757 544.103784c0 128.968649-73.617297 244.652973-193.72973 295.022702l-184.32 83.027028-170.482162-78.598919c-115.130811-50.923243-189.301622-166.054054-189.301622-290.594595V221.405405l369.193514-124.54054L880.916757 221.405405v322.698379z" fill="#FFF" p-id="4550"></path><path d="M327.403243 373.621622c0 87.455135 59.779459 156.644324 138.378379 179.891892v235.243243h92.436756v-45.941622h45.941622v-92.436757h-45.941622V553.513514c78.598919-18.265946 138.378378-92.436757 138.378379-179.891892 0-101.292973-83.027027-184.32-184.32-184.32S327.403243 272.328649 327.403243 373.621622z m276.756757 0c0 50.923243-41.513514 92.436757-92.436757 92.436756s-92.436757-41.513514-92.436757-92.436756 41.513514-92.436757 92.436757-92.436757S604.16 322.698378 604.16 373.621622z" fill="#FFF" p-id="4551"></path></svg>