<?xml version="1.0" standalone="no"?><!DOCTYPE svg PUBLIC "-//W3C//DTD SVG 1.1//EN" "http://www.w3.org/Graphics/SVG/1.1/DTD/svg11.dtd"><svg t="1627389697935" class="icon" viewBox="0 0 1024 1024" version="1.1" xmlns="http://www.w3.org/2000/svg" p-id="5365" xmlns:xlink="http://www.w3.org/1999/xlink" width="200" height="200"><defs><style type="text/css">@font-face { font-family: feedback-iconfont; src: url("//at.alicdn.com/t/font_1031158_1uhr8ri0pk5.eot?#iefix") format("embedded-opentype"), url("//at.alicdn.com/t/font_1031158_1uhr8ri0pk5.woff2") format("woff2"), url("//at.alicdn.com/t/font_1031158_1uhr8ri0pk5.woff") format("woff"), url("//at.alicdn.com/t/font_1031158_1uhr8ri0pk5.ttf") format("truetype"), url("//at.alicdn.com/t/font_1031158_1uhr8ri0pk5.svg#iconfont") format("svg"); }
</style></defs><path d="M748.8 224c25.6 0 44.8-19.2 44.8-51.2V51.2c0-19.2-6.4-32-19.2-44.8-12.8-6.4-32-6.4-44.8 0s-25.6 25.6-25.6 44.8v121.6c0 12.8 6.4 25.6 12.8 32 6.4 12.8 19.2 19.2 32 19.2z m-473.6 0c12.8 0 25.6-6.4 32-12.8 12.8-12.8 12.8-25.6 12.8-38.4V51.2c0-19.2-6.4-32-19.2-44.8-12.8-6.4-32-6.4-44.8 0-12.8 6.4-19.2 25.6-19.2 44.8v121.6c0 12.8 6.4 25.6 12.8 32 6.4 12.8 19.2 19.2 25.6 19.2z m640-96H832v51.2c0 57.6-38.4 96-89.6 96s-89.6-44.8-89.6-96V128H364.8v51.2c0 51.2-38.4 96-89.6 96S192 230.4 192 172.8V128H108.8c-12.8 0-25.6 0-32 12.8-6.4 6.4-12.8 19.2-12.8 32v800c0 12.8 6.4 25.6 12.8 32 6.4 12.8 19.2 19.2 32 19.2h806.4c12.8 0 25.6-6.4 32-12.8 6.4-6.4 12.8-19.2 12.8-32V172.8c0-25.6-19.2-44.8-44.8-44.8z m-38.4 787.2v6.4l-6.4 6.4h-704c-6.4 0-12.8-6.4-12.8-12.8V377.6c0-6.4 6.4-12.8 12.8-12.8h704s6.4 0 6.4 6.4v544zM281.6 550.4c-6.4 25.6 12.8 51.2 38.4 57.6h384c25.6 6.4 44.8-12.8 51.2-38.4s-19.2-57.6-44.8-57.6h-384c-19.2-6.4-44.8 12.8-44.8 38.4z m0 179.2c-6.4 25.6 12.8 51.2 38.4 57.6h211.2c12.8 0 32-6.4 38.4-19.2 6.4-12.8 12.8-32 6.4-51.2s-19.2-25.6-32-32H332.8c-25.6 0-51.2 19.2-51.2 44.8z" fill="#FFF" p-id="5366"></path></svg>