<?xml version="1.0" standalone="no"?><!DOCTYPE svg PUBLIC "-//W3C//DTD SVG 1.1//EN" "http://www.w3.org/Graphics/SVG/1.1/DTD/svg11.dtd"><svg t="1627389596359" class="icon" viewBox="0 0 1024 1024" version="1.1" xmlns="http://www.w3.org/2000/svg" p-id="2932" xmlns:xlink="http://www.w3.org/1999/xlink" width="200" height="200"><defs><style type="text/css">@font-face { font-family: feedback-iconfont; src: url("//at.alicdn.com/t/font_1031158_1uhr8ri0pk5.eot?#iefix") format("embedded-opentype"), url("//at.alicdn.com/t/font_1031158_1uhr8ri0pk5.woff2") format("woff2"), url("//at.alicdn.com/t/font_1031158_1uhr8ri0pk5.woff") format("woff"), url("//at.alicdn.com/t/font_1031158_1uhr8ri0pk5.ttf") format("truetype"), url("//at.alicdn.com/t/font_1031158_1uhr8ri0pk5.svg#iconfont") format("svg"); }
</style></defs><path d="M950.857143 877.714286H219.428571c-40.228571 0-73.142857-43.885714-73.142857-97.499429V97.499429C146.285714 43.885714 179.2 0 219.428571 0h731.428572c40.228571 0 73.142857 43.885714 73.142857 97.499429v682.715428C1024 833.828571 991.085714 877.714286 950.857143 877.714286z" fill="#C3D2FB" p-id="2933"></path><path d="M804.571429 1024H73.142857c-40.228571 0-73.142857-43.885714-73.142857-97.499429V243.785143C0 190.171429 32.914286 146.285714 73.142857 146.285714h731.428572c40.228571 0 73.142857 43.885714 73.142857 97.499429v682.715428C877.714286 980.114286 844.8 1024 804.571429 1024z" fill="#FFF" p-id="2934"></path><path d="M503.881143 521.581714H178.761143C160.914286 521.581714 146.285714 503.003429 146.285714 480.256 146.285714 457.508571 160.914286 438.857143 178.761143 438.857143H503.954286c17.846857 0 32.475429 18.651429 32.475428 41.398857 0 22.674286-14.628571 41.325714-32.475428 41.325714z m195.072 247.296H178.761143c-17.846857 0-32.475429-18.578286-32.475429-41.325714 0-22.820571 14.628571-41.398857 32.475429-41.398857h520.192c17.846857 0 32.475429 18.578286 32.475428 41.398857 0 22.674286-14.628571 41.325714-32.475428 41.325714z" fill="#FFFFFF" p-id="2935"></path></svg>