<?xml version="1.0" standalone="no"?><!DOCTYPE svg PUBLIC "-//W3C//DTD SVG 1.1//EN" "http://www.w3.org/Graphics/SVG/1.1/DTD/svg11.dtd"><svg t="1627389923965" class="icon" viewBox="0 0 1024 1024" version="1.1" xmlns="http://www.w3.org/2000/svg" p-id="6964" xmlns:xlink="http://www.w3.org/1999/xlink" width="200" height="200"><defs><style type="text/css">@font-face { font-family: feedback-iconfont; src: url("//at.alicdn.com/t/font_1031158_1uhr8ri0pk5.eot?#iefix") format("embedded-opentype"), url("//at.alicdn.com/t/font_1031158_1uhr8ri0pk5.woff2") format("woff2"), url("//at.alicdn.com/t/font_1031158_1uhr8ri0pk5.woff") format("woff"), url("//at.alicdn.com/t/font_1031158_1uhr8ri0pk5.ttf") format("truetype"), url("//at.alicdn.com/t/font_1031158_1uhr8ri0pk5.svg#iconfont") format("svg"); }
</style></defs><path d="M 841.896 735.498 c 0 -105.259 -25.306 -266.831 -164.974 -266.831 c -14.806 0 -77.304 64.729 -170.74 64.729 c -93.501 0 -155.929 -64.729 -170.739 -64.729 c -139.663 0 -164.967 161.571 -164.967 266.831 c 0 75.422 51.511 120.604 127.287 120.604 h 416.773 c 75.844 -0.001 127.359 -45.183 127.359 -120.604 Z M 689.298 319.656 c 0 -98.709 -82.033 -178.815 -183.115 -178.815 c -101.081 0 -183.114 80.107 -183.114 178.815 s 82.033 178.815 183.114 178.815 c 101.082 -0.001 183.115 -80.108 183.115 -178.815 Z" fill="#FFF" p-id="6965"></path></svg>